<?xml version="1.0" encoding="UTF-8"?>
<svg id="Layer_2" data-name="Layer 2" xmlns="http://www.w3.org/2000/svg" viewBox="0 0 785.2 185.13">
  <defs>
    <style>
      .cls-1 {
        fill: #eafd2a;
        stroke-width: 0px;
      }
    </style>
  </defs>
  <g id="Layer_2-2" data-name="Layer 2">
    <g>
      <g>
        <path class="cls-1" d="M190.11,146.18s-.04,0-.06,0c0,0,0,0,0,0,0,0-.01,0-.02,0,0,0,0,0,0,0l-11.95,1.95v-15.82l16.3-2.67c2.52-.41,4.22-2.78,3.81-5.3-.41-2.52-2.78-4.22-5.3-3.81L3.92,151.46c-2.52.41-4.22,2.78-3.81,5.3.37,2.26,2.33,3.87,4.55,3.87.25,0,.5-.02.75-.06l19.24-3.15v15.82l-21.09,3.45c-2.06.34-3.57,2.11-3.57,4.2,0,2.35,1.9,4.25,4.25,4.25h185.66c4.61,0,8.39-3.78,8.39-8.39v-23.51c0-4.58-3.68-7.74-8.19-7.05ZM168.84,149.66l-38.83,6.35v-15.82l38.83-6.35v15.82ZM120.78,157.51l-38.83,6.35v-15.82l38.83-6.35v15.82ZM33.89,155.91l38.83-6.35v15.82l-38.83,6.35v-15.82Z"/>
        <path class="cls-1" d="M17.74,140.1l162.81-26.63c4.3-.7,7.82-4.84,7.82-9.2v-35.51c0-4.36-2.91-9.99-6.46-12.52L105.5,1.89c-3.55-2.53-9.36-2.53-12.91,0L16.38,56.14c-3.55,2.53-6.46,8.16-6.46,12.52v64.79c0,4.36,3.52,7.35,7.82,6.65ZM101.13,44.56c0-2.18,1.78-3.96,3.96-3.96h16.89c2.18,0,3.96,1.78,3.96,3.96v16.89c0,2.18-1.78,3.96-3.96,3.96h-16.89c-2.18,0-3.96-1.78-3.96-3.96v-16.89ZM101.13,73.33c0-2.18,1.78-3.96,3.96-3.96h16.89c2.18,0,3.96,1.78,3.96,3.96v16.89c0,2.18-1.78,3.96-3.96,3.96h-16.89c-2.18,0-3.96-1.78-3.96-3.96v-16.89ZM72.35,44.56c0-2.18,1.78-3.96,3.96-3.96h16.89c2.18,0,3.96,1.78,3.96,3.96v16.89c0,2.18-1.78,3.96-3.96,3.96h-16.89c-2.18,0-3.96-1.78-3.96-3.96v-16.89ZM72.35,73.33c0-2.18,1.78-3.96,3.96-3.96h16.89c2.18,0,3.96,1.78,3.96,3.96v16.89c0,2.18-1.78,3.96-3.96,3.96h-16.89c-2.18,0-3.96-1.78-3.96-3.96v-16.89Z"/>
      </g>
      <g>
        <path class="cls-1" d="M267.74,57.03h35.87c3.43,0,4.85-1.33,4.85-3.62,0-2.66-1.43-4-4.95-4h-15.89c-12.18,0-21.22-7.33-21.22-21.03s9.04-20.84,21.22-20.84h38.63v17.13h-34.26c-2.57,0-4.76.95-4.76,3.81s2.19,3.81,4.76,3.81h16.27c12.75,0,21.22,7.23,21.22,20.55s-8.47,21.32-21.22,21.32h-40.54v-17.13Z"/>
        <path class="cls-1" d="M347.89,7.55h36.35l16.75,66.61h-21.79l-2.57-10.47h-21.13l-2.57,10.47h-21.79l16.75-66.61ZM359.41,47.32h13.23l-5.52-22.65h-2.19l-5.52,22.65Z"/>
        <path class="cls-1" d="M405.95,7.55h20.65l16.75,21.12h.95l16.75-21.12h20.65v66.61h-20.93v-38.35h-.95l-15.51,20.17h-.95l-15.51-20.17h-.95v38.35h-20.93V7.55Z"/>
        <path class="cls-1" d="M491.87,7.55h56.43v17.13h-34.92v7.61h34.92v17.13h-34.92v7.61h34.92v17.13h-56.43V7.55Z"/>
        <path class="cls-1" d="M581.6,7.55h32.64c19.22,0,33.69,11.51,33.69,33.4s-14.46,33.21-33.69,33.21h-32.64V7.55ZM611.86,57.03c10.47,0,15.03-6.28,15.03-16.18s-4.57-16.18-15.8-16.18h-7.71v32.36h8.47Z"/>
        <path class="cls-1" d="M665.66,7.55h36.35l16.75,66.61h-21.79l-2.57-10.47h-21.13l-2.57,10.47h-21.79l16.75-66.61ZM677.17,47.32h13.23l-5.52-22.65h-2.19l-5.52,22.65Z"/>
        <path class="cls-1" d="M737.81,50.56l-25.5-43.01h25.12l10.75,20.55h1.14l10.75-20.55h25.12l-25.5,43.01v23.6h-21.89v-23.6Z"/>
        <path class="cls-1" d="M269.49,89.51h61.22c20.63,0,33.8,11.67,33.8,31.22,0,13.3-5.97,22.4-16.16,26.74l14.66,37.06h-32.99l-11.95-33.8h-19.68v33.8h-28.91v-95.02ZM323.51,129.69c5.7,0,9.64-2.04,9.64-8.01s-3.94-7.74-9.64-7.74h-25.11v15.75h25.11Z"/>
        <path class="cls-1" d="M392.09,89.51h51.85l23.89,95.02h-31.09l-3.66-14.93h-30.14l-3.66,14.93h-31.09l23.89-95.02ZM408.51,146.25h18.87l-7.87-32.31h-3.12l-7.87,32.31Z"/>
        <path class="cls-1" d="M474.3,89.51h29.46l23.89,30.14h1.36l23.89-30.14h29.46v95.02h-29.86v-54.7h-1.36l-22.13,28.78h-1.36l-22.13-28.78h-1.36v54.7h-29.86v-95.02Z"/>
        <path class="cls-1" d="M596.35,89.51h58.23c20.63,0,33.26,12.22,33.26,31.77s-12.63,31.76-33.26,31.76h-27.01v31.49h-31.22v-95.02ZM648.48,128.6c4.34,0,7.87-2.04,7.87-7.33,0-5.57-3.53-7.33-7.87-7.33h-20.9v14.66h20.9Z"/>
        <path class="cls-1" d="M694.56,160.09h51.17c4.89,0,6.92-1.9,6.92-5.16,0-3.8-2.04-5.7-7.06-5.7h-22.67c-17.38,0-30.27-10.45-30.27-30s12.89-29.73,30.27-29.73h55.11v24.43h-48.87c-3.66,0-6.79,1.36-6.79,5.43s3.12,5.43,6.79,5.43h23.21c18.19,0,30.27,10.32,30.27,29.32s-12.08,30.41-30.27,30.41h-57.83v-24.43Z"/>
      </g>
    </g>
  </g>
</svg>